<svg width="42" height="43" viewBox="0 0 42 43" fill="none" xmlns="http://www.w3.org/2000/svg">
<g clip-path="url(#clip0_1_5)">
<mask id="mask0_1_5" style="mask-type:luminance" maskUnits="userSpaceOnUse" x="0" y="0" width="42" height="43">
<path d="M42 0H0V43H42V0Z" fill="white"/>
</mask>
<g mask="url(#mask0_1_5)">
<path d="M1.04521 4.5933C1.04521 5.12884 0.619623 5.56288 0.094502 5.56288C0.0810512 5.56288 0.0681383 5.56288 0.0546875 5.56178V3.62536C0.0681383 3.62427 0.0810512 3.62427 0.094502 3.62427C0.619623 3.62427 1.04521 4.05775 1.04521 4.5933Z" fill="white"/>
<path d="M2.93796 42.8624C2.93796 42.909 2.9358 42.9546 2.92989 43.0001H0.691664C0.685746 42.9546 0.683594 42.909 0.683594 42.8624C0.683594 42.2281 1.18827 41.7134 1.81131 41.7134C2.43436 41.7134 2.93796 42.2281 2.93796 42.8624Z" fill="white"/>
<path d="M29.6788 42.7015C29.6788 42.8041 29.6664 42.9046 29.6433 43H27.3109C27.2878 42.9046 27.2754 42.8041 27.2754 42.7015C27.2754 42.025 27.8129 41.4768 28.4763 41.4768C29.1397 41.4768 29.6788 42.025 29.6788 42.7015Z" fill="white"/>
<path d="M34.0981 42.7015C34.0981 42.8041 34.0857 42.9046 34.0626 43H31.7318C31.7087 42.9046 31.6963 42.8041 31.6963 42.7015C31.6963 42.025 32.2338 41.4768 32.8972 41.4768C33.5606 41.4768 34.0981 42.025 34.0981 42.7015Z" fill="white"/>
<path d="M39.5554 37.7439C40.2186 37.7439 40.7563 37.1956 40.7563 36.5192C40.7563 35.8428 40.2186 35.2944 39.5554 35.2944C38.8922 35.2944 38.3545 35.8428 38.3545 36.5192C38.3545 37.1956 38.8922 37.7439 39.5554 37.7439Z" fill="white"/>
<path d="M38.5317 42.9408C38.5317 42.9605 38.5317 42.9803 38.5306 43.0001H36.131C36.1299 42.9803 36.1299 42.9605 36.1299 42.9408C36.1299 42.2642 36.6674 41.7161 37.3308 41.7161C37.9942 41.7161 38.5317 42.2642 38.5317 42.9408Z" fill="white"/>
<path d="M35.0818 37.7439C35.745 37.7439 36.2826 37.1956 36.2826 36.5192C36.2826 35.8428 35.745 35.2944 35.0818 35.2944C34.4185 35.2944 33.8809 35.8428 33.8809 36.5192C33.8809 37.1956 34.4185 37.7439 35.0818 37.7439Z" fill="white"/>
<path d="M26.2458 37.7439C26.909 37.7439 27.4467 37.1956 27.4467 36.5192C27.4467 35.8428 26.909 35.2944 26.2458 35.2944C25.5826 35.2944 25.0449 35.8428 25.0449 36.5192C25.0449 37.1956 25.5826 37.7439 26.2458 37.7439Z" fill="white"/>
<path d="M39.5554 28.656C40.2186 28.656 40.7563 28.1077 40.7563 27.4313C40.7563 26.7549 40.2186 26.2065 39.5554 26.2065C38.8922 26.2065 38.3545 26.7549 38.3545 27.4313C38.3545 28.1077 38.8922 28.656 39.5554 28.656Z" fill="white"/>
<path d="M37.3308 30.8921C37.994 30.8921 38.5317 30.3438 38.5317 29.6674C38.5317 28.991 37.994 28.4426 37.3308 28.4426C36.6675 28.4426 36.1299 28.991 36.1299 29.6674C36.1299 30.3438 36.6675 30.8921 37.3308 30.8921Z" fill="white"/>
<path d="M39.5554 10.4062C40.2186 10.4062 40.7563 9.85792 40.7563 9.18152C40.7563 8.50512 40.2186 7.95679 39.5554 7.95679C38.8922 7.95679 38.3545 8.50512 38.3545 9.18152C38.3545 9.85792 38.8922 10.4062 39.5554 10.4062Z" fill="white"/>
<path d="M39.5554 5.81811C40.2186 5.81811 40.7563 5.26978 40.7563 4.59338C40.7563 3.91698 40.2186 3.36865 39.5554 3.36865C38.8922 3.36865 38.3545 3.91698 38.3545 4.59338C38.3545 5.26978 38.8922 5.81811 39.5554 5.81811Z" fill="white"/>
<path d="M37.3308 8.12866C37.994 8.12866 38.5317 7.58033 38.5317 6.90393C38.5317 6.22753 37.994 5.6792 37.3308 5.6792C36.6675 5.6792 36.1299 6.22753 36.1299 6.90393C36.1299 7.58033 36.6675 8.12866 37.3308 8.12866Z" fill="white"/>
<path d="M35.0818 5.81811C35.745 5.81811 36.2826 5.26978 36.2826 4.59338C36.2826 3.91698 35.745 3.36865 35.0818 3.36865C34.4185 3.36865 33.8809 3.91698 33.8809 4.59338C33.8809 5.26978 34.4185 5.81811 35.0818 5.81811Z" fill="white"/>
<path d="M32.8977 3.4652C33.503 3.4652 33.9937 2.96477 33.9937 2.34747C33.9937 1.73016 33.503 1.22974 32.8977 1.22974C32.2924 1.22974 31.8018 1.73016 31.8018 2.34747C31.8018 2.96477 32.2924 3.4652 32.8977 3.4652Z" fill="white"/>
<path d="M37.3303 12.5162C37.9356 12.5162 38.4263 12.0158 38.4263 11.3985C38.4263 10.7812 37.9356 10.2808 37.3303 10.2808C36.7251 10.2808 36.2344 10.7812 36.2344 11.3985C36.2344 12.0158 36.7251 12.5162 37.3303 12.5162Z" fill="white"/>
<path d="M35.0823 10.2994C35.6876 10.2994 36.1783 9.799 36.1783 9.1817C36.1783 8.56439 35.6876 8.06396 35.0823 8.06396C34.477 8.06396 33.9863 8.56439 33.9863 9.1817C33.9863 9.799 34.477 10.2994 35.0823 10.2994Z" fill="white"/>
<path d="M28.4778 3.4652C29.0831 3.4652 29.5738 2.96477 29.5738 2.34747C29.5738 1.73016 29.0831 1.22974 28.4778 1.22974C27.8725 1.22974 27.3818 1.73016 27.3818 2.34747C27.3818 2.96477 27.8725 3.4652 28.4778 3.4652Z" fill="white"/>
<path d="M24.0579 3.4652C24.6632 3.4652 25.1539 2.96477 25.1539 2.34747C25.1539 1.73016 24.6632 1.22974 24.0579 1.22974C23.4526 1.22974 22.9619 1.73016 22.9619 2.34747C22.9619 2.96477 23.4526 3.4652 24.0579 3.4652Z" fill="white"/>
<path d="M19.6458 3.4652C20.2511 3.4652 20.7418 2.96477 20.7418 2.34747C20.7418 1.73016 20.2511 1.22974 19.6458 1.22974C19.0405 1.22974 18.5498 1.73016 18.5498 2.34747C18.5498 2.96477 19.0405 3.4652 19.6458 3.4652Z" fill="white"/>
<path d="M37.3308 3.57202C37.994 3.57202 38.5317 3.02369 38.5317 2.34729C38.5317 1.67089 37.994 1.12256 37.3308 1.12256C36.6675 1.12256 36.1299 1.67089 36.1299 2.34729C36.1299 3.02369 36.6675 3.57202 37.3308 3.57202Z" fill="white"/>
<path d="M15.2595 3.57202C15.9227 3.57202 16.4604 3.02369 16.4604 2.34729C16.4604 1.67089 15.9227 1.12256 15.2595 1.12256C14.5962 1.12256 14.0586 1.67089 14.0586 2.34729C14.0586 3.02369 14.5962 3.57202 15.2595 3.57202Z" fill="white"/>
<path d="M10.8972 3.57202C11.5604 3.57202 12.0981 3.02369 12.0981 2.34729C12.0981 1.67089 11.5604 1.12256 10.8972 1.12256C10.2339 1.12256 9.69629 1.67089 9.69629 2.34729C9.69629 3.02369 10.2339 3.57202 10.8972 3.57202Z" fill="white"/>
<path d="M6.49777 3.57202C7.161 3.57202 7.69866 3.02369 7.69866 2.34729C7.69866 1.67089 7.161 1.12256 6.49777 1.12256C5.83453 1.12256 5.29688 1.67089 5.29688 2.34729C5.29688 3.02369 5.83453 3.57202 6.49777 3.57202Z" fill="white"/>
<path d="M1.81027 3.57202C2.4735 3.57202 3.01116 3.02369 3.01116 2.34729C3.01116 1.67089 2.4735 1.12256 1.81027 1.12256C1.14703 1.12256 0.609375 1.67089 0.609375 2.34729C0.609375 3.02369 1.14703 3.57202 1.81027 3.57202Z" fill="white"/>
<path d="M4.21652 5.81811C4.87975 5.81811 5.41741 5.26978 5.41741 4.59338C5.41741 3.91698 4.87975 3.36865 4.21652 3.36865C3.55328 3.36865 3.01562 3.91698 3.01562 4.59338C3.01562 5.26978 3.55328 5.81811 4.21652 5.81811Z" fill="white"/>
<path d="M8.7048 5.81811C9.36803 5.81811 9.90569 5.26978 9.90569 4.59338C9.90569 3.91698 9.36803 3.36865 8.7048 3.36865C8.04156 3.36865 7.50391 3.91698 7.50391 4.59338C7.50391 5.26978 8.04156 5.81811 8.7048 5.81811Z" fill="white"/>
<path d="M6.49777 8.12866C7.161 8.12866 7.69866 7.58033 7.69866 6.90393C7.69866 6.22753 7.161 5.6792 6.49777 5.6792C5.83453 5.6792 5.29688 6.22753 5.29688 6.90393C5.29688 7.58033 5.83453 8.12866 6.49777 8.12866Z" fill="white"/>
<path d="M4.21652 10.4062C4.87975 10.4062 5.41741 9.85792 5.41741 9.18152C5.41741 8.50512 4.87975 7.95679 4.21652 7.95679C3.55328 7.95679 3.01562 8.50512 3.01562 9.18152C3.01562 9.85792 3.55328 10.4062 4.21652 10.4062Z" fill="white"/>
<path d="M1.81027 8.12866C2.4735 8.12866 3.01116 7.58033 3.01116 6.90393C3.01116 6.22753 2.4735 5.6792 1.81027 5.6792C1.14703 5.6792 0.609375 6.22753 0.609375 6.90393C0.609375 7.58033 1.14703 8.12866 1.81027 8.12866Z" fill="white"/>
<path d="M13.1696 5.81811C13.8329 5.81811 14.3705 5.26978 14.3705 4.59338C14.3705 3.91698 13.8329 3.36865 13.1696 3.36865C12.5064 3.36865 11.9688 3.91698 11.9688 4.59338C11.9688 5.26978 12.5064 5.81811 13.1696 5.81811Z" fill="white"/>
<path d="M17.4499 5.81811C18.1131 5.81811 18.6508 5.26978 18.6508 4.59338C18.6508 3.91698 18.1131 3.36865 17.4499 3.36865C16.7867 3.36865 16.249 3.91698 16.249 4.59338C16.249 5.26978 16.7867 5.81811 17.4499 5.81811Z" fill="white"/>
<path d="M21.8669 5.81811C22.5301 5.81811 23.0678 5.26978 23.0678 4.59338C23.0678 3.91698 22.5301 3.36865 21.8669 3.36865C21.2037 3.36865 20.666 3.91698 20.666 4.59338C20.666 5.26978 21.2037 5.81811 21.8669 5.81811Z" fill="white"/>
<path d="M26.2458 5.81811C26.909 5.81811 27.4467 5.26978 27.4467 4.59338C27.4467 3.91698 26.909 3.36865 26.2458 3.36865C25.5826 3.36865 25.0449 3.91698 25.0449 4.59338C25.0449 5.26978 25.5826 5.81811 26.2458 5.81811Z" fill="white"/>
<path d="M30.7253 5.81811C31.3885 5.81811 31.9262 5.26978 31.9262 4.59338C31.9262 3.91698 31.3885 3.36865 30.7253 3.36865C30.0621 3.36865 29.5244 3.91698 29.5244 4.59338C29.5244 5.26978 30.0621 5.81811 30.7253 5.81811Z" fill="white"/>
<path d="M32.8972 8.12866C33.5604 8.12866 34.0981 7.58033 34.0981 6.90393C34.0981 6.22753 33.5604 5.6792 32.8972 5.6792C32.2339 5.6792 31.6963 6.22753 31.6963 6.90393C31.6963 7.58033 32.2339 8.12866 32.8972 8.12866Z" fill="white"/>
<path d="M30.7258 37.8679C31.4562 37.8679 32.0483 37.264 32.0483 36.5191C32.0483 35.7743 31.4562 35.1704 30.7258 35.1704C29.9954 35.1704 29.4033 35.7743 29.4033 36.5191C29.4033 37.264 29.9954 37.8679 30.7258 37.8679Z" fill="white"/>
<path d="M32.898 30.7775C33.4991 30.7775 33.9865 30.2805 33.9865 29.6674C33.9865 29.0544 33.4991 28.5574 32.898 28.5574C32.2969 28.5574 31.8096 29.0544 31.8096 29.6674C31.8096 30.2805 32.2969 30.7775 32.898 30.7775Z" fill="white"/>
<path d="M35.0816 28.4449C35.6305 28.4449 36.0754 27.9912 36.0754 27.4314C36.0754 26.8717 35.6305 26.418 35.0816 26.418C34.5328 26.418 34.0879 26.8717 34.0879 27.4314C34.0879 27.9912 34.5328 28.4449 35.0816 28.4449Z" fill="white"/>
<path d="M30.7252 28.4449C31.274 28.4449 31.7189 27.9912 31.7189 27.4314C31.7189 26.8717 31.274 26.418 30.7252 26.418C30.1764 26.418 29.7314 26.8717 29.7314 27.4314C29.7314 27.9912 30.1764 28.4449 30.7252 28.4449Z" fill="white"/>
<path d="M32.8971 26.1573C33.4459 26.1573 33.8908 25.7036 33.8908 25.1438C33.8908 24.5841 33.4459 24.1304 32.8971 24.1304C32.3482 24.1304 31.9033 24.5841 31.9033 25.1438C31.9033 25.7036 32.3482 26.1573 32.8971 26.1573Z" fill="white"/>
<path d="M35.0816 23.8729C35.6305 23.8729 36.0754 23.4191 36.0754 22.8594C36.0754 22.2997 35.6305 21.8459 35.0816 21.8459C34.5328 21.8459 34.0879 22.2997 34.0879 22.8594C34.0879 23.4191 34.5328 23.8729 35.0816 23.8729Z" fill="white"/>
<path d="M37.3307 21.6507C37.8795 21.6507 38.3244 21.197 38.3244 20.6373C38.3244 20.0775 37.8795 19.6238 37.3307 19.6238C36.7818 19.6238 36.3369 20.0775 36.3369 20.6373C36.3369 21.197 36.7818 21.6507 37.3307 21.6507Z" fill="white"/>
<path d="M37.3307 26.1573C37.8795 26.1573 38.3244 25.7036 38.3244 25.1438C38.3244 24.5841 37.8795 24.1304 37.3307 24.1304C36.7818 24.1304 36.3369 24.5841 36.3369 25.1438C36.3369 25.7036 36.7818 26.1573 37.3307 26.1573Z" fill="white"/>
<path d="M39.5553 23.8729C40.1041 23.8729 40.549 23.4191 40.549 22.8594C40.549 22.2997 40.1041 21.8459 39.5553 21.8459C39.0064 21.8459 38.5615 22.2997 38.5615 22.8594C38.5615 23.4191 39.0064 23.8729 39.5553 23.8729Z" fill="white"/>
<path d="M4.2156 37.6046C4.80336 37.6046 5.27983 37.1186 5.27983 36.5192C5.27983 35.9198 4.80336 35.4338 4.2156 35.4338C3.62784 35.4338 3.15137 35.9198 3.15137 36.5192C3.15137 37.1186 3.62784 37.6046 4.2156 37.6046Z" fill="white"/>
<path d="M15.2595 30.7527C15.8473 30.7527 16.3238 30.2668 16.3238 29.6674C16.3238 29.068 15.8473 28.582 15.2595 28.582C14.6718 28.582 14.1953 29.068 14.1953 29.6674C14.1953 30.2668 14.6718 30.7527 15.2595 30.7527Z" fill="white"/>
<path d="M15.2596 21.6748C15.8215 21.6748 16.277 21.2103 16.277 20.6372C16.277 20.0642 15.8215 19.5996 15.2596 19.5996C14.6977 19.5996 14.2422 20.0642 14.2422 20.6372C14.2422 21.2103 14.6977 21.6748 15.2596 21.6748Z" fill="white"/>
<path d="M6.49782 30.7527C7.08558 30.7527 7.56206 30.2668 7.56206 29.6674C7.56206 29.068 7.08558 28.582 6.49782 28.582C5.91007 28.582 5.43359 29.068 5.43359 29.6674C5.43359 30.2668 5.91007 30.7527 6.49782 30.7527Z" fill="white"/>
<path d="M4.2156 28.5167C4.80336 28.5167 5.27983 28.0307 5.27983 27.4313C5.27983 26.8319 4.80336 26.3459 4.2156 26.3459C3.62784 26.3459 3.15137 26.8319 3.15137 27.4313C3.15137 28.0307 3.62784 28.5167 4.2156 28.5167Z" fill="white"/>
<path d="M28.4773 30.7527C29.0651 30.7527 29.5415 30.2668 29.5415 29.6674C29.5415 29.068 29.0651 28.582 28.4773 28.582C27.8896 28.582 27.4131 29.068 27.4131 29.6674C27.4131 30.2668 27.8896 30.7527 28.4773 30.7527Z" fill="white"/>
<path d="M13.1699 37.779C13.8521 37.779 14.4052 37.2149 14.4052 36.5191C14.4052 35.8233 13.8521 35.2593 13.1699 35.2593C12.4876 35.2593 11.9346 35.8233 11.9346 36.5191C11.9346 37.2149 12.4876 37.779 13.1699 37.779Z" fill="white"/>
<path d="M17.4502 37.779C18.1324 37.779 18.6855 37.2149 18.6855 36.5191C18.6855 35.8233 18.1324 35.2593 17.4502 35.2593C16.7679 35.2593 16.2148 35.8233 16.2148 36.5191C16.2148 37.2149 16.7679 37.779 17.4502 37.779Z" fill="white"/>
<path d="M21.8672 37.779C22.5494 37.779 23.1025 37.2149 23.1025 36.5191C23.1025 35.8233 22.5494 35.2593 21.8672 35.2593C21.1849 35.2593 20.6318 35.8233 20.6318 36.5191C20.6318 37.2149 21.1849 37.779 21.8672 37.779Z" fill="white"/>
<path d="M41.9996 32.9958V35.4464H41.9743C41.3109 35.4464 40.7734 34.8971 40.7734 34.2206C40.7734 33.544 41.3109 32.9958 41.9743 32.9958H41.9996Z" fill="white"/>
<path d="M37.3308 35.4458C37.994 35.4458 38.5317 34.8975 38.5317 34.2211C38.5317 33.5447 37.994 32.9963 37.3308 32.9963C36.6675 32.9963 36.1299 33.5447 36.1299 34.2211C36.1299 34.8975 36.6675 35.4458 37.3308 35.4458Z" fill="white"/>
<path d="M28.4773 35.4458C29.1405 35.4458 29.6781 34.8975 29.6781 34.2211C29.6781 33.5447 29.1405 32.9963 28.4773 32.9963C27.814 32.9963 27.2764 33.5447 27.2764 34.2211C27.2764 34.8975 27.814 35.4458 28.4773 35.4458Z" fill="white"/>
<path d="M32.8977 35.5698C33.6281 35.5698 34.2202 34.9659 34.2202 34.2211C34.2202 33.4762 33.6281 32.8723 32.8977 32.8723C32.1673 32.8723 31.5752 33.4762 31.5752 34.2211C31.5752 34.9659 32.1673 35.5698 32.8977 35.5698Z" fill="white"/>
<path d="M1.81032 35.3065C2.39808 35.3065 2.87456 34.8205 2.87456 34.2211C2.87456 33.6217 2.39808 33.1357 1.81032 33.1357C1.22257 33.1357 0.746094 33.6217 0.746094 34.2211C0.746094 34.8205 1.22257 35.3065 1.81032 35.3065Z" fill="white"/>
<path d="M6.49782 35.3065C7.08558 35.3065 7.56206 34.8205 7.56206 34.2211C7.56206 33.6217 7.08558 33.1357 6.49782 33.1357C5.91007 33.1357 5.43359 33.6217 5.43359 34.2211C5.43359 34.8205 5.91007 35.3065 6.49782 35.3065Z" fill="white"/>
<path d="M10.8972 35.3065C11.485 35.3065 11.9615 34.8205 11.9615 34.2211C11.9615 33.6217 11.485 33.1357 10.8972 33.1357C10.3095 33.1357 9.83301 33.6217 9.83301 34.2211C9.83301 34.8205 10.3095 35.3065 10.8972 35.3065Z" fill="white"/>
<path d="M15.2595 35.3065C15.8473 35.3065 16.3238 34.8205 16.3238 34.2211C16.3238 33.6217 15.8473 33.1357 15.2595 33.1357C14.6718 33.1357 14.1953 33.6217 14.1953 34.2211C14.1953 34.8205 14.6718 35.3065 15.2595 35.3065Z" fill="white"/>
<path d="M19.6453 35.3065C20.233 35.3065 20.7095 34.8205 20.7095 34.2211C20.7095 33.6217 20.233 33.1357 19.6453 33.1357C19.0575 33.1357 18.5811 33.6217 18.5811 34.2211C18.5811 34.8205 19.0575 35.3065 19.6453 35.3065Z" fill="white"/>
<path d="M24.0586 35.4809C24.7408 35.4809 25.2939 34.9168 25.2939 34.221C25.2939 33.5252 24.7408 32.9612 24.0586 32.9612C23.3763 32.9612 22.8232 33.5252 22.8232 34.221C22.8232 34.9168 23.3763 35.4809 24.0586 35.4809Z" fill="white"/>
<path d="M8.70408 37.779C9.38633 37.779 9.9394 37.2149 9.9394 36.5191C9.9394 35.8233 9.38633 35.2593 8.70408 35.2593C8.02182 35.2593 7.46875 35.8233 7.46875 36.5191C7.46875 37.2149 8.02182 37.779 8.70408 37.779Z" fill="white"/>
<path d="M12.9486 26.2545C12.2664 26.2545 11.6584 26.7642 11.7133 27.5143C11.7736 28.3363 10.867 28.5366 10.5603 28.4334C10.2262 28.3379 9.99645 28.085 9.90121 27.6954C9.7511 26.9716 10.0712 26.4926 10.7852 26.4558C11.4664 26.4207 12.0205 25.8918 12.0205 25.196C12.0205 24.5002 11.4674 23.9361 10.7852 23.9361C10.103 23.9361 9.5757 24.3806 9.54988 25.196C9.53105 25.7902 8.94889 26.3774 8.15368 26.092C7.83732 25.9636 7.34878 25.421 7.62748 24.7334C7.85453 24.256 8.22416 24.1337 8.65889 24.1008C9.33897 24.0486 9.89422 23.5367 9.89422 22.8409C9.89422 22.1451 9.34112 21.5811 8.65889 21.5811C7.97667 21.5811 7.40366 22.0886 7.42357 22.8409C7.44186 23.535 6.90383 23.7649 6.45995 23.7869C5.74437 23.8231 5.1875 24.3131 5.1875 25.0089C5.1875 25.7046 5.74544 26.1875 6.42283 26.2687C7.30789 26.3752 7.46876 26.9947 7.49674 27.2893C7.56238 27.9818 8.05253 28.4888 8.73207 28.5492C9.6053 28.6265 9.64995 29.42 9.65964 29.6444C9.68977 30.3396 10.2127 30.9043 10.895 30.9043C11.5772 30.9043 12.183 30.338 12.1303 29.6444C12.07 28.8493 12.8104 28.7906 12.9476 28.7731C13.7024 28.677 14.1829 28.209 14.1829 27.5132C14.1829 26.8174 13.6298 26.2534 12.9476 26.2534L12.9486 26.2545Z" fill="white"/>
<path d="M1.81032 39.8143C2.39808 39.8143 2.87456 39.3283 2.87456 38.7289C2.87456 38.1295 2.39808 37.6436 1.81032 37.6436C1.22257 37.6436 0.746094 38.1295 0.746094 38.7289C0.746094 39.3283 1.22257 39.8143 1.81032 39.8143Z" fill="white"/>
<path d="M6.49782 39.8143C7.08558 39.8143 7.56206 39.3283 7.56206 38.7289C7.56206 38.1295 7.08558 37.6436 6.49782 37.6436C5.91007 37.6436 5.43359 38.1295 5.43359 38.7289C5.43359 39.3283 5.91007 39.8143 6.49782 39.8143Z" fill="white"/>
<path d="M24.0583 39.9536C24.7215 39.9536 25.2592 39.4053 25.2592 38.7289C25.2592 38.0525 24.7215 37.5042 24.0583 37.5042C23.3951 37.5042 22.8574 38.0525 22.8574 38.7289C22.8574 39.4053 23.3951 39.9536 24.0583 39.9536Z" fill="white"/>
<path d="M37.3308 39.9536C37.994 39.9536 38.5317 39.4053 38.5317 38.7289C38.5317 38.0525 37.994 37.5042 37.3308 37.5042C36.6675 37.5042 36.1299 38.0525 36.1299 38.7289C36.1299 39.4053 36.6675 39.9536 37.3308 39.9536Z" fill="white"/>
<path d="M41.9996 37.5042V39.9536H41.9743C41.3109 39.9536 40.7734 39.4054 40.7734 38.7289C40.7734 38.0523 41.3109 37.5042 41.9743 37.5042H41.9996Z" fill="white"/>
<path d="M32.8972 39.9536C33.5604 39.9536 34.0981 39.4053 34.0981 38.7289C34.0981 38.0525 33.5604 37.5042 32.8972 37.5042C32.2339 37.5042 31.6963 38.0525 31.6963 38.7289C31.6963 39.4053 32.2339 39.9536 32.8972 39.9536Z" fill="white"/>
<path d="M28.4778 40.0776C29.2081 40.0776 29.8002 39.4738 29.8002 38.7289C29.8002 37.984 29.2081 37.3801 28.4778 37.3801C27.7474 37.3801 27.1553 37.984 27.1553 38.7289C27.1553 39.4738 27.7474 40.0776 28.4778 40.0776Z" fill="white"/>
<path d="M10.8974 39.9887C11.5797 39.9887 12.1328 39.4246 12.1328 38.7288C12.1328 38.033 11.5797 37.469 10.8974 37.469C10.2152 37.469 9.66211 38.033 9.66211 38.7288C9.66211 39.4246 10.2152 39.9887 10.8974 39.9887Z" fill="white"/>
<path d="M15.2588 39.9887C15.941 39.9887 16.4941 39.4246 16.4941 38.7288C16.4941 38.033 15.941 37.469 15.2588 37.469C14.5765 37.469 14.0234 38.033 14.0234 38.7288C14.0234 39.4246 14.5765 39.9887 15.2588 39.9887Z" fill="white"/>
<path d="M19.6455 39.9887C20.3277 39.9887 20.8808 39.4246 20.8808 38.7288C20.8808 38.033 20.3277 37.469 19.6455 37.469C18.9632 37.469 18.4102 38.033 18.4102 38.7288C18.4102 39.4246 18.9632 39.9887 19.6455 39.9887Z" fill="white"/>
<path d="M0.758974 9.18218C0.758974 9.5564 0.461441 9.85984 0.094502 9.85984C0.0810512 9.85984 0.0681383 9.85984 0.0546875 9.85764V8.50561C0.0681383 8.50342 0.0810512 8.50342 0.094502 8.50342C0.461441 8.50342 0.758974 8.80686 0.758974 9.18218Z" fill="white"/>
<path d="M0.758974 13.782C0.758974 14.1563 0.461441 14.4597 0.094502 14.4597C0.0810512 14.4597 0.0681383 14.4597 0.0546875 14.4575V13.1055C0.0681383 13.1033 0.0810512 13.1033 0.094502 13.1033C0.461441 13.1033 0.758974 13.4067 0.758974 13.782Z" fill="white"/>
<path d="M8.70461 9.86045C9.07218 9.86045 9.37016 9.55656 9.37016 9.18169C9.37016 8.80682 9.07218 8.50293 8.70461 8.50293C8.33704 8.50293 8.03906 8.80682 8.03906 9.18169C8.03906 9.55656 8.33704 9.86045 8.70461 9.86045Z" fill="white"/>
<path d="M6.49758 12.0772C6.86515 12.0772 7.16313 11.7734 7.16313 11.3985C7.16313 11.0236 6.86515 10.7197 6.49758 10.7197C6.13001 10.7197 5.83203 11.0236 5.83203 11.3985C5.83203 11.7734 6.13001 12.0772 6.49758 12.0772Z" fill="white"/>
<path d="M13.1695 9.86045C13.537 9.86045 13.835 9.55656 13.835 9.18169C13.835 8.80682 13.537 8.50293 13.1695 8.50293C12.8019 8.50293 12.5039 8.80682 12.5039 9.18169C12.5039 9.55656 12.8019 9.86045 13.1695 9.86045Z" fill="white"/>
<path d="M10.897 12.0772C11.2646 12.0772 11.5625 11.7734 11.5625 11.3985C11.5625 11.0236 11.2646 10.7197 10.897 10.7197C10.5294 10.7197 10.2314 11.0236 10.2314 11.3985C10.2314 11.7734 10.5294 12.0772 10.897 12.0772Z" fill="white"/>
<path d="M17.4497 9.86045C17.8173 9.86045 18.1153 9.55656 18.1153 9.18169C18.1153 8.80682 17.8173 8.50293 17.4497 8.50293C17.0822 8.50293 16.7842 8.80682 16.7842 9.18169C16.7842 9.55656 17.0822 9.86045 17.4497 9.86045Z" fill="white"/>
<path d="M19.646 12.0772C20.0136 12.0772 20.3116 11.7734 20.3116 11.3985C20.3116 11.0236 20.0136 10.7197 19.646 10.7197C19.2784 10.7197 18.9805 11.0236 18.9805 11.3985C18.9805 11.7734 19.2784 12.0772 19.646 12.0772Z" fill="white"/>
<path d="M24.0581 12.0772C24.4257 12.0772 24.7237 11.7734 24.7237 11.3985C24.7237 11.0236 24.4257 10.7197 24.0581 10.7197C23.6906 10.7197 23.3926 11.0236 23.3926 11.3985C23.3926 11.7734 23.6906 12.0772 24.0581 12.0772Z" fill="white"/>
<path d="M21.8676 9.90807C22.2611 9.90807 22.58 9.58281 22.58 9.18158C22.58 8.78034 22.2611 8.45508 21.8676 8.45508C21.4742 8.45508 21.1553 8.78034 21.1553 9.18158C21.1553 9.58281 21.4742 9.90807 21.8676 9.90807Z" fill="white"/>
<path d="M26.2458 9.93719C26.6549 9.93719 26.9866 9.5989 26.9866 9.18161C26.9866 8.76431 26.6549 8.42603 26.2458 8.42603C25.8366 8.42603 25.5049 8.76431 25.5049 9.18161C25.5049 9.5989 25.8366 9.93719 26.2458 9.93719Z" fill="white"/>
<path d="M28.4772 12.154C28.8864 12.154 29.2181 11.8157 29.2181 11.3984C29.2181 10.9811 28.8864 10.6428 28.4772 10.6428C28.068 10.6428 27.7363 10.9811 27.7363 11.3984C27.7363 11.8157 28.068 12.154 28.4772 12.154Z" fill="white"/>
<path d="M30.7252 14.537C31.1344 14.537 31.4661 14.1988 31.4661 13.7815C31.4661 13.3642 31.1344 13.0259 30.7252 13.0259C30.3161 13.0259 29.9844 13.3642 29.9844 13.7815C29.9844 14.1988 30.3161 14.537 30.7252 14.537Z" fill="white"/>
<path d="M32.8971 16.7934C33.3063 16.7934 33.638 16.4551 33.638 16.0378C33.638 15.6205 33.3063 15.2822 32.8971 15.2822C32.488 15.2822 32.1562 15.6205 32.1562 16.0378C32.1562 16.4551 32.488 16.7934 32.8971 16.7934Z" fill="white"/>
<path d="M0.758974 27.4314C0.758974 27.8057 0.461441 28.1102 0.094502 28.1102C0.0810512 28.1102 0.0681383 28.1102 0.0546875 28.108V26.7549C0.0681383 26.7527 0.0810512 26.7527 0.094502 26.7527C0.461441 26.7527 0.758974 27.0572 0.758974 27.4314Z" fill="white"/>
<path d="M26.2456 28.1102C26.6132 28.1102 26.9112 27.8063 26.9112 27.4314C26.9112 27.0566 26.6132 26.7527 26.2456 26.7527C25.8781 26.7527 25.5801 27.0566 25.5801 27.4314C25.5801 27.8063 25.8781 28.1102 26.2456 28.1102Z" fill="white"/>
<path d="M28.478 25.8226C28.8456 25.8226 29.1436 25.5187 29.1436 25.1438C29.1436 24.769 28.8456 24.4651 28.478 24.4651C28.1105 24.4651 27.8125 24.769 27.8125 25.1438C27.8125 25.5187 28.1105 25.8226 28.478 25.8226Z" fill="white"/>
<path d="M24.0581 30.346C24.4257 30.346 24.7237 30.0422 24.7237 29.6673C24.7237 29.2924 24.4257 28.9885 24.0581 28.9885C23.6906 28.9885 23.3926 29.2924 23.3926 29.6673C23.3926 30.0422 23.6906 30.346 24.0581 30.346Z" fill="white"/>
<path d="M30.7251 23.7044C31.1827 23.7044 31.5536 23.3261 31.5536 22.8594C31.5536 22.3927 31.1827 22.0144 30.7251 22.0144C30.2675 22.0144 29.8965 22.3927 29.8965 22.8594C29.8965 23.3261 30.2675 23.7044 30.7251 23.7044Z" fill="white"/>
<path d="M32.8979 21.4823C33.3555 21.4823 33.7265 21.1039 33.7265 20.6373C33.7265 20.1706 33.3555 19.7922 32.8979 19.7922C32.4403 19.7922 32.0693 20.1706 32.0693 20.6373C32.0693 21.1039 32.4403 21.4823 32.8979 21.4823Z" fill="white"/>
<path d="M35.0815 19.223C35.5391 19.223 35.9101 18.8447 35.9101 18.378C35.9101 17.9113 35.5391 17.533 35.0815 17.533C34.6239 17.533 34.2529 17.9113 34.2529 18.378C34.2529 18.8447 34.6239 19.223 35.0815 19.223Z" fill="white"/>
<path d="M28.478 7.87348C29.0031 7.87348 29.4288 7.43939 29.4288 6.9039C29.4288 6.36842 29.0031 5.93433 28.478 5.93433C27.953 5.93433 27.5273 6.36842 27.5273 6.9039C27.5273 7.43939 27.953 7.87348 28.478 7.87348Z" fill="white"/>
<path d="M24.0581 7.74888C24.5157 7.74888 24.8866 7.37055 24.8866 6.90386C24.8866 6.43717 24.5157 6.05884 24.0581 6.05884C23.6005 6.05884 23.2295 6.43717 23.2295 6.90386C23.2295 7.37055 23.6005 7.74888 24.0581 7.74888Z" fill="white"/>
<path d="M19.646 7.74888C20.1036 7.74888 20.4745 7.37055 20.4745 6.90386C20.4745 6.43717 20.1036 6.05884 19.646 6.05884C19.1883 6.05884 18.8174 6.43717 18.8174 6.90386C18.8174 7.37055 19.1883 7.74888 19.646 7.74888Z" fill="white"/>
<path d="M1.81002 30.5123C2.26763 30.5123 2.63859 30.134 2.63859 29.6673C2.63859 29.2006 2.26763 28.8223 1.81002 28.8223C1.35241 28.8223 0.981445 29.2006 0.981445 29.6673C0.981445 30.134 1.35241 30.5123 1.81002 30.5123Z" fill="white"/>
<path d="M1.81002 25.9889C2.26763 25.9889 2.63859 25.6105 2.63859 25.1438C2.63859 24.6772 2.26763 24.2988 1.81002 24.2988C1.35241 24.2988 0.981445 24.6772 0.981445 25.1438C0.981445 25.6105 1.35241 25.9889 1.81002 25.9889Z" fill="white"/>
<path d="M4.21627 23.7044C4.67388 23.7044 5.04484 23.3261 5.04484 22.8594C5.04484 22.3927 4.67388 22.0144 4.21627 22.0144C3.75866 22.0144 3.3877 22.3927 3.3877 22.8594C3.3877 23.3261 3.75866 23.7044 4.21627 23.7044Z" fill="white"/>
<path d="M21.8677 28.1102C22.2353 28.1102 22.5332 27.8063 22.5332 27.4314C22.5332 27.0566 22.2353 26.7527 21.8677 26.7527C21.5001 26.7527 21.2021 27.0566 21.2021 27.4314C21.2021 27.8063 21.5001 28.1102 21.8677 28.1102Z" fill="white"/>
<path d="M19.646 30.5123C20.1036 30.5123 20.4745 30.134 20.4745 29.6673C20.4745 29.2006 20.1036 28.8223 19.646 28.8223C19.1883 28.8223 18.8174 29.2006 18.8174 29.6673C18.8174 30.134 19.1883 30.5123 19.646 30.5123Z" fill="white"/>
<path d="M15.2592 7.74888C15.7168 7.74888 16.0878 7.37055 16.0878 6.90386C16.0878 6.43717 15.7168 6.05884 15.2592 6.05884C14.8016 6.05884 14.4307 6.43717 14.4307 6.90386C14.4307 7.37055 14.8016 7.74888 15.2592 7.74888Z" fill="white"/>
<path d="M10.8969 7.74888C11.3545 7.74888 11.7255 7.37055 11.7255 6.90386C11.7255 6.43717 11.3545 6.05884 10.8969 6.05884C10.4393 6.05884 10.0684 6.43717 10.0684 6.90386C10.0684 7.37055 10.4393 7.74888 10.8969 7.74888Z" fill="white"/>
<path d="M39.5554 33.2202C40.2186 33.2202 40.7563 32.6719 40.7563 31.9955C40.7563 31.3191 40.2186 30.7708 39.5554 30.7708C38.8922 30.7708 38.3545 31.3191 38.3545 31.9955C38.3545 32.6719 38.8922 33.2202 39.5554 33.2202Z" fill="white"/>
<path d="M35.0823 33.3442C35.8126 33.3442 36.4047 32.7404 36.4047 31.9955C36.4047 31.2506 35.8126 30.6467 35.0823 30.6467C34.3519 30.6467 33.7598 31.2506 33.7598 31.9955C33.7598 32.7404 34.3519 33.3442 35.0823 33.3442Z" fill="white"/>
<path d="M30.7252 33.1494C31.3501 33.1494 31.8567 32.6328 31.8567 31.9955C31.8567 31.3582 31.3501 30.8416 30.7252 30.8416C30.1003 30.8416 29.5938 31.3582 29.5938 31.9955C29.5938 32.6328 30.1003 33.1494 30.7252 33.1494Z" fill="white"/>
<path d="M21.867 33.0809C22.4547 33.0809 22.9312 32.5949 22.9312 31.9955C22.9312 31.3961 22.4547 30.9102 21.867 30.9102C21.2792 30.9102 20.8027 31.3961 20.8027 31.9955C20.8027 32.5949 21.2792 33.0809 21.867 33.0809Z" fill="white"/>
<path d="M17.45 33.0809C18.0377 33.0809 18.5142 32.5949 18.5142 31.9955C18.5142 31.3961 18.0377 30.9102 17.45 30.9102C16.8622 30.9102 16.3857 31.3961 16.3857 31.9955C16.3857 32.5949 16.8622 33.0809 17.45 33.0809Z" fill="white"/>
<path d="M13.1697 33.0809C13.7575 33.0809 14.2339 32.5949 14.2339 31.9955C14.2339 31.3961 13.7575 30.9102 13.1697 30.9102C12.5819 30.9102 12.1055 31.3961 12.1055 31.9955C12.1055 32.5949 12.5819 33.0809 13.1697 33.0809Z" fill="white"/>
<path d="M8.70388 33.0809C9.29164 33.0809 9.76811 32.5949 9.76811 31.9955C9.76811 31.3961 9.29164 30.9102 8.70388 30.9102C8.11612 30.9102 7.63965 31.3961 7.63965 31.9955C7.63965 32.5949 8.11612 33.0809 8.70388 33.0809Z" fill="white"/>
<path d="M4.2156 33.0809C4.80336 33.0809 5.27983 32.5949 5.27983 31.9955C5.27983 31.3961 4.80336 30.9102 4.2156 30.9102C3.62784 30.9102 3.15137 31.3961 3.15137 31.9955C3.15137 32.5949 3.62784 33.0809 4.2156 33.0809Z" fill="white"/>
<path d="M26.2461 33.2553C26.9283 33.2553 27.4814 32.6912 27.4814 31.9954C27.4814 31.2996 26.9283 30.7356 26.2461 30.7356C25.5638 30.7356 25.0107 31.2996 25.0107 31.9954C25.0107 32.6912 25.5638 33.2553 26.2461 33.2553Z" fill="white"/>
<path d="M0.758974 31.9957C0.758974 32.3699 0.461441 32.6744 0.094502 32.6744C0.0810512 32.6744 0.0681383 32.6744 0.0546875 32.6722V31.3191C0.0681383 31.3169 0.0810512 31.3169 0.094502 31.3169C0.461441 31.3169 0.758974 31.6214 0.758974 31.9957Z" fill="white"/>
<path d="M7.2816 42.9847C7.2816 42.9897 7.2816 42.9951 7.28052 43.0001H5.71592C5.71484 42.9951 5.71484 42.9897 5.71484 42.9847C5.71484 42.5436 6.06618 42.1858 6.49822 42.1858C6.93026 42.1858 7.2816 42.5441 7.2816 42.9847Z" fill="white"/>
<path d="M11.6821 42.9847C11.6821 42.9897 11.6821 42.9951 11.681 43.0001H10.1153C10.1143 42.9951 10.1143 42.9897 10.1143 42.9847C10.1143 42.5436 10.4656 42.1858 10.8987 42.1858C11.3318 42.1858 11.6821 42.5441 11.6821 42.9847Z" fill="white"/>
<path d="M16.0434 42.9847C16.0434 42.9897 16.0434 42.9951 16.0423 43.0001H14.4767C14.4756 42.9951 14.4756 42.9897 14.4756 42.9847C14.4756 42.5436 14.8269 42.1858 15.26 42.1858C15.6932 42.1858 16.0434 42.5441 16.0434 42.9847Z" fill="white"/>
<path d="M20.4301 42.9847C20.4301 42.9897 20.4301 42.9951 20.4291 43.0001H18.8634C18.8623 42.9951 18.8623 42.9897 18.8623 42.9847C18.8623 42.5436 19.2136 42.1858 19.6468 42.1858C20.0799 42.1858 20.4301 42.5441 20.4301 42.9847Z" fill="white"/>
<path d="M24.9825 42.7899C24.9825 42.8623 24.9744 42.932 24.9583 43H23.1569C23.1419 42.9325 23.1338 42.8623 23.1338 42.7899C23.1338 42.2697 23.547 41.8472 24.0581 41.8472C24.5693 41.8472 24.9825 42.2697 24.9825 42.7899Z" fill="white"/>
<path d="M0.758974 36.5191C0.758974 36.8933 0.461441 37.1979 0.094502 37.1979C0.0810512 37.1979 0.0681383 37.1979 0.0546875 37.1957V35.8425C0.0681383 35.8403 0.0810512 35.8403 0.094502 35.8403C0.461441 35.8403 0.758974 36.1449 0.758974 36.5191Z" fill="white"/>
<path d="M4.21579 42.1633C4.89805 42.1633 5.45112 41.5992 5.45112 40.9034C5.45112 40.2076 4.89805 39.6436 4.21579 39.6436C3.53354 39.6436 2.98047 40.2076 2.98047 40.9034C2.98047 41.5992 3.53354 42.1633 4.21579 42.1633Z" fill="white"/>
<path d="M26.2458 42.1282C26.909 42.1282 27.4467 41.5798 27.4467 40.9034C27.4467 40.227 26.909 39.6787 26.2458 39.6787C25.5826 39.6787 25.0449 40.227 25.0449 40.9034C25.0449 41.5798 25.5826 42.1282 26.2458 42.1282Z" fill="white"/>
<path d="M30.7253 42.1282C31.3885 42.1282 31.9262 41.5798 31.9262 40.9034C31.9262 40.227 31.3885 39.6787 30.7253 39.6787C30.0621 39.6787 29.5244 40.227 29.5244 40.9034C29.5244 41.5798 30.0621 42.1282 30.7253 42.1282Z" fill="white"/>
<path d="M35.0818 42.1282C35.745 42.1282 36.2826 41.5798 36.2826 40.9034C36.2826 40.227 35.745 39.6787 35.0818 39.6787C34.4185 39.6787 33.8809 40.227 33.8809 40.9034C33.8809 41.5798 34.4185 42.1282 35.0818 42.1282Z" fill="white"/>
<path d="M39.5554 42.1282C40.2186 42.1282 40.7563 41.5798 40.7563 40.9034C40.7563 40.227 40.2186 39.6787 39.5554 39.6787C38.8922 39.6787 38.3545 40.227 38.3545 40.9034C38.3545 41.5798 38.8922 42.1282 39.5554 42.1282Z" fill="white"/>
<path d="M41.9996 41.7161V43.0006H40.7745C40.7734 42.9808 40.7734 42.9611 40.7734 42.9413C40.7734 42.2648 41.3109 41.7166 41.9743 41.7166L41.9996 41.7161Z" fill="white"/>
<path d="M8.70408 42.1633C9.38633 42.1633 9.9394 41.5992 9.9394 40.9034C9.9394 40.2076 9.38633 39.6436 8.70408 39.6436C8.02182 39.6436 7.46875 40.2076 7.46875 40.9034C7.46875 41.5992 8.02182 42.1633 8.70408 42.1633Z" fill="white"/>
<path d="M13.1699 42.1633C13.8521 42.1633 14.4052 41.5992 14.4052 40.9034C14.4052 40.2076 13.8521 39.6436 13.1699 39.6436C12.4876 39.6436 11.9346 40.2076 11.9346 40.9034C11.9346 41.5992 12.4876 42.1633 13.1699 42.1633Z" fill="white"/>
<path d="M17.4502 42.1633C18.1324 42.1633 18.6855 41.5992 18.6855 40.9034C18.6855 40.2076 18.1324 39.6436 17.4502 39.6436C16.7679 39.6436 16.2148 40.2076 16.2148 40.9034C16.2148 41.5992 16.7679 42.1633 17.4502 42.1633Z" fill="white"/>
<path d="M21.8672 42.1633C22.5494 42.1633 23.1025 41.5992 23.1025 40.9034C23.1025 40.2076 22.5494 39.6436 21.8672 39.6436C21.1849 39.6436 20.6318 40.2076 20.6318 40.9034C20.6318 41.5992 21.1849 42.1633 21.8672 42.1633Z" fill="white"/>
<path d="M0.758974 40.9039C0.758974 41.2781 0.461441 41.5815 0.094502 41.5815C0.0810512 41.5815 0.0681383 41.5815 0.0546875 41.5793V40.2273C0.0681383 40.2251 0.0810512 40.2251 0.094502 40.2251C0.461441 40.2251 0.758974 40.5285 0.758974 40.9039Z" fill="white"/>
<path d="M0.60133 18.3782C0.60133 18.664 0.373742 18.895 0.094502 18.895C0.0810512 18.895 0.0670623 18.895 0.0546875 18.8929V17.864C0.0670623 17.8618 0.0810512 17.8618 0.094502 17.8618C0.373742 17.8618 0.60133 18.0923 0.60133 18.3782Z" fill="white"/>
<path d="M17.4502 14.2984C17.7301 14.2984 17.957 14.067 17.957 13.7815C17.957 13.4961 17.7301 13.2646 17.4502 13.2646C17.1703 13.2646 16.9434 13.4961 16.9434 13.7815C16.9434 14.067 17.1703 14.2984 17.4502 14.2984Z" fill="white"/>
<path d="M21.8672 14.2984C22.1471 14.2984 22.374 14.067 22.374 13.7815C22.374 13.4961 22.1471 13.2646 21.8672 13.2646C21.5873 13.2646 21.3604 13.4961 21.3604 13.7815C21.3604 14.067 21.5873 14.2984 21.8672 14.2984Z" fill="white"/>
<path d="M26.2461 14.2984C26.526 14.2984 26.7529 14.067 26.7529 13.7815C26.7529 13.4961 26.526 13.2646 26.2461 13.2646C25.9662 13.2646 25.7393 13.4961 25.7393 13.7815C25.7393 14.067 25.9662 14.2984 26.2461 14.2984Z" fill="white"/>
<path d="M28.4775 16.5548C28.7574 16.5548 28.9844 16.3234 28.9844 16.0379C28.9844 15.7524 28.7574 15.521 28.4775 15.521C28.1976 15.521 27.9707 15.7524 27.9707 16.0379C27.9707 16.3234 28.1976 16.5548 28.4775 16.5548Z" fill="white"/>
<path d="M24.0586 16.5548C24.3385 16.5548 24.5654 16.3234 24.5654 16.0379C24.5654 15.7524 24.3385 15.521 24.0586 15.521C23.7787 15.521 23.5518 15.7524 23.5518 16.0379C23.5518 16.3234 23.7787 16.5548 24.0586 16.5548Z" fill="white"/>
<path d="M17.4502 27.9483C17.7301 27.9483 17.957 27.7169 17.957 27.4314C17.957 27.146 17.7301 26.9146 17.4502 26.9146C17.1703 26.9146 16.9434 27.146 16.9434 27.4314C16.9434 27.7169 17.1703 27.9483 17.4502 27.9483Z" fill="white"/>
<path d="M26.2461 18.8949C26.526 18.8949 26.7529 18.6634 26.7529 18.378C26.7529 18.0925 26.526 17.8611 26.2461 17.8611C25.9662 17.8611 25.7393 18.0925 25.7393 18.378C25.7393 18.6634 25.9662 18.8949 26.2461 18.8949Z" fill="white"/>
<path d="M30.7256 18.8949C31.0055 18.8949 31.2324 18.6634 31.2324 18.378C31.2324 18.0925 31.0055 17.8611 30.7256 17.8611C30.4457 17.8611 30.2188 18.0925 30.2188 18.378C30.2188 18.6634 30.4457 18.8949 30.7256 18.8949Z" fill="white"/>
<path d="M28.4775 21.1541C28.7574 21.1541 28.9844 20.9227 28.9844 20.6373C28.9844 20.3518 28.7574 20.1204 28.4775 20.1204C28.1976 20.1204 27.9707 20.3518 27.9707 20.6373C27.9707 20.9227 28.1976 21.1541 28.4775 21.1541Z" fill="white"/>
<path d="M26.2461 23.3763C26.526 23.3763 26.7529 23.1449 26.7529 22.8594C26.7529 22.5739 26.526 22.3425 26.2461 22.3425C25.9662 22.3425 25.7393 22.5739 25.7393 22.8594C25.7393 23.1449 25.9662 23.3763 26.2461 23.3763Z" fill="white"/>
<path d="M24.0586 25.6607C24.3385 25.6607 24.5654 25.4293 24.5654 25.1438C24.5654 24.8584 24.3385 24.627 24.0586 24.627C23.7787 24.627 23.5518 24.8584 23.5518 25.1438C23.5518 25.4293 23.7787 25.6607 24.0586 25.6607Z" fill="white"/>
<path d="M15.2588 11.9154C15.5387 11.9154 15.7656 11.684 15.7656 11.3985C15.7656 11.113 15.5387 10.8816 15.2588 10.8816C14.9789 10.8816 14.752 11.113 14.752 11.3985C14.752 11.684 14.9789 11.9154 15.2588 11.9154Z" fill="white"/>
<path d="M4.21581 14.2984C4.49573 14.2984 4.72264 14.067 4.72264 13.7815C4.72264 13.4961 4.49573 13.2646 4.21581 13.2646C3.9359 13.2646 3.70898 13.4961 3.70898 13.7815C3.70898 14.067 3.9359 14.2984 4.21581 14.2984Z" fill="white"/>
<path d="M4.21581 18.8949C4.49573 18.8949 4.72264 18.6634 4.72264 18.378C4.72264 18.0925 4.49573 17.8611 4.21581 17.8611C3.9359 17.8611 3.70898 18.0925 3.70898 18.378C3.70898 18.6634 3.9359 18.8949 4.21581 18.8949Z" fill="white"/>
<path d="M6.49823 16.4922C6.74426 16.4922 6.94372 16.2888 6.94372 16.0378C6.94372 15.7869 6.74426 15.5835 6.49823 15.5835C6.25219 15.5835 6.05273 15.7869 6.05273 16.0378C6.05273 16.2888 6.25219 16.4922 6.49823 16.4922Z" fill="white"/>
<path d="M8.70428 18.8325C8.95032 18.8325 9.14977 18.6291 9.14977 18.3782C9.14977 18.1272 8.95032 17.9238 8.70428 17.9238C8.45824 17.9238 8.25879 18.1272 8.25879 18.3782C8.25879 18.6291 8.45824 18.8325 8.70428 18.8325Z" fill="white"/>
<path d="M10.8976 21.0915C11.1437 21.0915 11.3431 20.8881 11.3431 20.6372C11.3431 20.3863 11.1437 20.1829 10.8976 20.1829C10.6516 20.1829 10.4521 20.3863 10.4521 20.6372C10.4521 20.8881 10.6516 21.0915 10.8976 21.0915Z" fill="white"/>
<path d="M15.2591 25.5026C15.4534 25.5026 15.611 25.342 15.611 25.1438C15.611 24.9456 15.4534 24.7849 15.2591 24.7849C15.0648 24.7849 14.9072 24.9456 14.9072 25.1438C14.9072 25.342 15.0648 25.5026 15.2591 25.5026Z" fill="white"/>
<path d="M13.1693 23.2182C13.3636 23.2182 13.5211 23.0575 13.5211 22.8593C13.5211 22.6612 13.3636 22.5005 13.1693 22.5005C12.9749 22.5005 12.8174 22.6612 12.8174 22.8593C12.8174 23.0575 12.9749 23.2182 13.1693 23.2182Z" fill="white"/>
<path d="M19.6458 25.5026C19.8402 25.5026 19.9977 25.342 19.9977 25.1438C19.9977 24.9456 19.8402 24.7849 19.6458 24.7849C19.4515 24.7849 19.2939 24.9456 19.2939 25.1438C19.2939 25.342 19.4515 25.5026 19.6458 25.5026Z" fill="white"/>
<path d="M17.4505 23.2182C17.6448 23.2182 17.8024 23.0575 17.8024 22.8593C17.8024 22.6612 17.6448 22.5005 17.4505 22.5005C17.2562 22.5005 17.0986 22.6612 17.0986 22.8593C17.0986 23.0575 17.2562 23.2182 17.4505 23.2182Z" fill="white"/>
<path d="M21.8675 23.2182C22.0618 23.2182 22.2194 23.0575 22.2194 22.8593C22.2194 22.6612 22.0618 22.5005 21.8675 22.5005C21.6732 22.5005 21.5156 22.6612 21.5156 22.8593C21.5156 23.0575 21.6732 23.2182 21.8675 23.2182Z" fill="white"/>
<path d="M19.6458 20.996C19.8402 20.996 19.9977 20.8354 19.9977 20.6372C19.9977 20.439 19.8402 20.2783 19.6458 20.2783C19.4515 20.2783 19.2939 20.439 19.2939 20.6372C19.2939 20.8354 19.4515 20.996 19.6458 20.996Z" fill="white"/>
<path d="M17.4505 18.737C17.6448 18.737 17.8024 18.5763 17.8024 18.3781C17.8024 18.18 17.6448 18.0193 17.4505 18.0193C17.2562 18.0193 17.0986 18.18 17.0986 18.3781C17.0986 18.5763 17.2562 18.737 17.4505 18.737Z" fill="white"/>
<path d="M13.1693 18.737C13.3636 18.737 13.5211 18.5763 13.5211 18.3781C13.5211 18.18 13.3636 18.0193 13.1693 18.0193C12.9749 18.0193 12.8174 18.18 12.8174 18.3781C12.8174 18.5763 12.9749 18.737 13.1693 18.737Z" fill="white"/>
<path d="M10.8978 16.3967C11.0921 16.3967 11.2496 16.236 11.2496 16.0378C11.2496 15.8396 11.0921 15.679 10.8978 15.679C10.7034 15.679 10.5459 15.8396 10.5459 16.0378C10.5459 16.236 10.7034 16.3967 10.8978 16.3967Z" fill="white"/>
<path d="M15.2591 16.3967C15.4534 16.3967 15.611 16.236 15.611 16.0378C15.611 15.8396 15.4534 15.679 15.2591 15.679C15.0648 15.679 14.9072 15.8396 14.9072 16.0378C14.9072 16.236 15.0648 16.3967 15.2591 16.3967Z" fill="white"/>
<path d="M19.6458 16.3967C19.8402 16.3967 19.9977 16.236 19.9977 16.0378C19.9977 15.8396 19.8402 15.679 19.6458 15.679C19.4515 15.679 19.2939 15.8396 19.2939 16.0378C19.2939 16.236 19.4515 16.3967 19.6458 16.3967Z" fill="white"/>
<path d="M21.8675 18.737C22.0618 18.737 22.2194 18.5763 22.2194 18.3781C22.2194 18.18 22.0618 18.0193 21.8675 18.0193C21.6732 18.0193 21.5156 18.18 21.5156 18.3781C21.5156 18.5763 21.6732 18.737 21.8675 18.737Z" fill="white"/>
<path d="M24.0579 20.996C24.2523 20.996 24.4098 20.8354 24.4098 20.6372C24.4098 20.439 24.2523 20.2783 24.0579 20.2783C23.8636 20.2783 23.7061 20.439 23.7061 20.6372C23.7061 20.8354 23.8636 20.996 24.0579 20.996Z" fill="white"/>
<path d="M6.49804 21.1541C6.77795 21.1541 7.00487 20.9227 7.00487 20.6373C7.00487 20.3518 6.77795 20.1204 6.49804 20.1204C6.21813 20.1204 5.99121 20.3518 5.99121 20.6373C5.99121 20.9227 6.21813 21.1541 6.49804 21.1541Z" fill="white"/>
<path d="M1.81054 21.1541C2.09045 21.1541 2.31737 20.9227 2.31737 20.6373C2.31737 20.3518 2.09045 20.1204 1.81054 20.1204C1.53063 20.1204 1.30371 20.3518 1.30371 20.6373C1.30371 20.9227 1.53063 21.1541 1.81054 21.1541Z" fill="white"/>
<path d="M8.70409 14.2984C8.98401 14.2984 9.21092 14.067 9.21092 13.7815C9.21092 13.4961 8.98401 13.2646 8.70409 13.2646C8.42418 13.2646 8.19727 13.4961 8.19727 13.7815C8.19727 14.067 8.42418 14.2984 8.70409 14.2984Z" fill="white"/>
<path d="M13.1699 14.2984C13.4498 14.2984 13.6767 14.067 13.6767 13.7815C13.6767 13.4961 13.4498 13.2646 13.1699 13.2646C12.89 13.2646 12.6631 13.4961 12.6631 13.7815C12.6631 14.067 12.89 14.2984 13.1699 14.2984Z" fill="white"/>
<path d="M1.81054 16.5548C2.09045 16.5548 2.31737 16.3234 2.31737 16.0379C2.31737 15.7524 2.09045 15.521 1.81054 15.521C1.53063 15.521 1.30371 15.7524 1.30371 16.0379C1.30371 16.3234 1.53063 16.5548 1.81054 16.5548Z" fill="white"/>
<path d="M0.60133 22.86C0.60133 23.1458 0.373742 23.3769 0.094502 23.3769C0.0810512 23.3769 0.0670623 23.3769 0.0546875 23.3747V22.3447C0.0670623 22.3425 0.0810512 22.3425 0.094502 22.3425C0.373742 22.3425 0.60133 22.5741 0.60133 22.86Z" fill="white"/>
<path d="M31.8218 0V0.00932814C31.8218 0.626632 31.3311 1.12706 30.7259 1.12706C30.1206 1.12706 29.6299 0.626632 29.6299 0.00932814V0H31.8218Z" fill="white"/>
<path d="M27.3414 0V0.00932814C27.3414 0.626632 26.8507 1.12706 26.2454 1.12706C25.6401 1.12706 25.1494 0.626632 25.1494 0.00932814V0H27.3414Z" fill="white"/>
<path d="M22.9634 0V0.00932814C22.9634 0.626632 22.4727 1.12706 21.8675 1.12706C21.2622 1.12706 20.7715 0.626632 20.7715 0.00932814V0H22.9634Z" fill="white"/>
<path d="M18.5455 0V0.00932814C18.5455 0.626632 18.0548 1.12706 17.4495 1.12706C16.8442 1.12706 16.3535 0.626632 16.3535 0.00932814V0H18.5455Z" fill="white"/>
<path d="M36.2815 0C36.2599 0.656811 35.7311 1.18138 35.0817 1.18138C34.4322 1.18138 33.9034 0.656262 33.8818 0H36.2815Z" fill="white"/>
<path d="M40.6519 0V0.00932814C40.6519 0.626632 40.1612 1.12706 39.5559 1.12706C38.9506 1.12706 38.46 0.626632 38.46 0.00932814V0H40.6519Z" fill="white"/>
<path d="M14.3695 0C14.3479 0.656811 13.819 1.18138 13.1696 1.18138C12.5202 1.18138 11.9903 0.656262 11.9688 0H14.3695Z" fill="white"/>
<path d="M7.50488 0C7.5264 0.656811 8.05529 1.18138 8.7047 1.18138C9.35411 1.18138 9.88299 0.656811 9.90451 0H7.50488Z" fill="white"/>
<path d="M5.41623 0C5.39471 0.656811 4.86582 1.18138 4.21642 1.18138C3.56701 1.18138 3.03812 0.656811 3.0166 0H5.41623Z" fill="white"/>
<path d="M1.09544 0C1.07499 0.620596 0.600446 1.12432 0 1.17699V0H1.09544Z" fill="white"/>
<path d="M42.0004 5.935V7.87251C41.9923 7.8736 41.9832 7.8736 41.9751 7.8736C41.45 7.8736 41.0244 7.43957 41.0244 6.90403C41.0244 6.36848 41.45 5.93335 41.9751 5.93335C41.9832 5.93335 41.9923 5.9339 42.0004 5.935Z" fill="white"/>
<path d="M42.0004 1.42889V3.3664C41.9923 3.3675 41.9832 3.3675 41.9751 3.3675C41.45 3.3675 41.0244 2.93347 41.0244 2.39792C41.0244 1.86238 41.45 1.42725 41.9751 1.42725C41.9832 1.42725 41.9923 1.4278 42.0004 1.42889Z" fill="white"/>
<path d="M42.0004 10.4294V12.3669C41.9923 12.368 41.9832 12.368 41.9751 12.368C41.45 12.368 41.0244 11.934 41.0244 11.3984C41.0244 10.8629 41.45 10.4277 41.9751 10.4277C41.9832 10.4277 41.9923 10.4283 42.0004 10.4294Z" fill="white"/>
<path d="M42.0004 15.0688V17.0063C41.9923 17.0074 41.9832 17.0074 41.9751 17.0074C41.45 17.0074 41.0244 16.5723 41.0244 16.0367C41.0244 15.5012 41.45 15.0671 41.9751 15.0671C41.9832 15.0671 41.9923 15.0677 42.0004 15.0688Z" fill="white"/>
<path d="M39.5562 19.3476C40.0812 19.3476 40.5069 18.9135 40.5069 18.378C40.5069 17.8425 40.0812 17.4084 39.5562 17.4084C39.0311 17.4084 38.6055 17.8425 38.6055 18.378C38.6055 18.9135 39.0311 19.3476 39.5562 19.3476Z" fill="white"/>
<path d="M37.3306 17.0075C37.8557 17.0075 38.2813 16.5734 38.2813 16.0379C38.2813 15.5025 37.8557 15.0684 37.3306 15.0684C36.8055 15.0684 36.3799 15.5025 36.3799 16.0379C36.3799 16.5734 36.8055 17.0075 37.3306 17.0075Z" fill="white"/>
<path d="M35.0816 14.7512C35.6066 14.7512 36.0323 14.3171 36.0323 13.7816C36.0323 13.2461 35.6066 12.812 35.0816 12.812C34.5565 12.812 34.1309 13.2461 34.1309 13.7816C34.1309 14.3171 34.5565 14.7512 35.0816 14.7512Z" fill="white"/>
<path d="M32.898 12.3681C33.423 12.3681 33.8487 11.934 33.8487 11.3985C33.8487 10.863 33.423 10.429 32.898 10.429C32.3729 10.429 31.9473 10.863 31.9473 11.3985C31.9473 11.934 32.3729 12.3681 32.898 12.3681Z" fill="white"/>
<path d="M1.81008 12.3681C2.33514 12.3681 2.76079 11.934 2.76079 11.3985C2.76079 10.863 2.33514 10.429 1.81008 10.429C1.28502 10.429 0.859375 10.863 0.859375 11.3985C0.859375 11.934 1.28502 12.3681 1.81008 12.3681Z" fill="white"/>
<path d="M30.7251 10.1513C31.2502 10.1513 31.6758 9.71722 31.6758 9.18174C31.6758 8.64625 31.2502 8.21216 30.7251 8.21216C30.2001 8.21216 29.7744 8.64625 29.7744 9.18174C29.7744 9.71722 30.2001 10.1513 30.7251 10.1513Z" fill="white"/>
<path d="M39.5562 14.7512C40.0812 14.7512 40.5069 14.3171 40.5069 13.7816C40.5069 13.2461 40.0812 12.812 39.5562 12.812C39.0311 12.812 38.6055 13.2461 38.6055 13.7816C38.6055 14.3171 39.0311 14.7512 39.5562 14.7512Z" fill="white"/>
<path d="M42.0004 19.6686V21.6061C41.9923 21.6072 41.9832 21.6072 41.9751 21.6072C41.45 21.6072 41.0244 21.1732 41.0244 20.6377C41.0244 20.1021 41.45 19.667 41.9751 19.667C41.9832 19.667 41.9923 19.6675 42.0004 19.6686Z" fill="white"/>
<path d="M42.0004 24.1757V26.1121C41.9923 26.1132 41.9832 26.1132 41.9751 26.1132C41.45 26.1132 41.0244 25.6792 41.0244 25.1437C41.0244 24.6081 41.45 24.1741 41.9751 24.1741C41.9832 24.1741 41.9923 24.1746 42.0004 24.1757Z" fill="white"/>
<path d="M42.0004 28.6984V30.6359C41.9923 30.637 41.9832 30.637 41.9751 30.637C41.45 30.637 41.0244 30.203 41.0244 29.6675C41.0244 29.1319 41.45 28.6968 41.9751 28.6968C41.9832 28.6968 41.9923 28.6973 42.0004 28.6984Z" fill="white"/>
</g>
</g>
<defs>
<clipPath id="clip0_1_5">
<rect width="42" height="43" fill="white"/>
</clipPath>
</defs>
</svg>
